PathFileType	4	(X/Y/Z)	C:\Users\Basilio\Documents\Thesis Gigler\squatting_fais\c3dfiles\040\SLS_pre_front5\markers_experimental.trc
DataRate	CameraRate	NumFrames	NumMarkers	Units	OrigDataRate	OrigDataStartFrame	OrigNumFrames
200.000000	200.000000	4	62	mm	200.000000	490	1309
Frame#	Time	FHD			LBHD			RBHD			C7			T10			CLAV			LSHO			LUUPA			LMUPA			LDUPA			LLEP			LMEP			LRAD			LUL			LRFIN			RSHO			RUPA1			RMUPA			RDUPA			RLEP			RMEP			RRAD			RUL			RUFIN			LASI			RASI			USACR			LSACR			RSACR			LTHI1			LTHI2			LTHI3			LTHI4			LLFC			LMFC			LTIB1			LTIB2			LTIB3			LTIB4			LLMAL			LMMAL			LHEE			LMT1			LMT2			LMT5			RTHI			RTHI2			RTHI3			RTHI4			RLFC			RMFC			RTIB1			RTIB2			RTIB3			RTIB4			RLMAL			RMMAL			RHEE			RMT1			RMT2			RMT5			*61			
		X1	Y1	Z1	X2	Y2	Z2	X3	Y3	Z3	X4	Y4	Z4	X5	Y5	Z5	X6	Y6	Z6	X7	Y7	Z7	X8	Y8	Z8	X9	Y9	Z9	X10	Y10	Z10	X11	Y11	Z11	X12	Y12	Z12	X13	Y13	Z13	X14	Y14	Z14	X15	Y15	Z15	X16	Y16	Z16	X17	Y17	Z17	X18	Y18	Z18	X19	Y19	Z19	X20	Y20	Z20	X21	Y21	Z21	X22	Y22	Z22	X23	Y23	Z23	X24	Y24	Z24	X25	Y25	Z25	X26	Y26	Z26	X27	Y27	Z27	X28	Y28	Z28	X29	Y29	Z29	X30	Y30	Z30	X31	Y31	Z31	X32	Y32	Z32	X33	Y33	Z33	X34	Y34	Z34	X35	Y35	Z35	X36	Y36	Z36	X37	Y37	Z37	X38	Y38	Z38	X39	Y39	Z39	X40	Y40	Z40	X41	Y41	Z41	X42	Y42	Z42	X43	Y43	Z43	X44	Y44	Z44	X45	Y45	Z45	X46	Y46	Z46	X47	Y47	Z47	X48	Y48	Z48	X49	Y49	Z49	X50	Y50	Z50	X51	Y51	Z51	X52	Y52	Z52	X53	Y53	Z53	X54	Y54	Z54	X55	Y55	Z55	X56	Y56	Z56	X57	Y57	Z57	X58	Y58	Z58	X59	Y59	Z59	X60	Y60	Z60	X61	Y61	Z61	X62	Y62	Z62	

491	2.45	-204.2129211425782	1537.671752929688	-1154.2197265625	-323.8372802734376	1478.47216796875	-1198.355834960938	-375.8216247558594	1434.1962890625	-1067.694580078125	-375.3724670410157	1333.20361328125	-1111.240234375	-485.9809570312501	1044.239501953125	-1075.458862304688	-262.4874267578126	1250.35693359375	-1124.70263671875	-310.5897827148438	1334.689575195313	-1247.160400390625	-156.5640411376953	1303.5810546875	-1327.715087890625	-127.7465209960938	1316.68115234375	-1289.36767578125	-87.94720458984376	1294.832153320313	-1330.350463867188	-28.50528526306153	1270.829467773438	-1330.1533203125	-37.46720886230469	1215.560180664063	-1296.939819335938	nan	nan	nan	247.1514587402344	1311.3486328125	-1269.25634765625	306.2424621582032	1329.817016601563	-1173.64111328125	-273.5743713378907	1315.80322265625	-987.3959960937502	-113.7454681396485	1263.135986328125	-918.3858642578127	-88.64955139160158	1287.257202148438	-951.852233886719	-45.43267059326173	1252.587036132813	-927.4033203125002	16.00383758544922	1248.313598632813	-943.8046875000002	4.701988697052003	1190.439819335938	-994.197448730469	255.6627197265626	1321.812622070313	-1101.452514648438	276.7552185058594	1301.20458984375	-1029.757202148438	351.4134826660157	1340.674926757813	-1106.729248046875	-353.9564208984376	850.8093872070315	-1177.50341796875	-336.1725158691407	864.4444580078127	-957.3745727539065	-526.8528442382814	889.7183837890627	-1052.258544921875	-537.7081909179689	856.9440917968752	-1078.899291992188	-530.5092773437501	857.4976196289065	-1023.124084472656	-313.4167480468751	609.0620727539064	-1235.964111328125	-232.388168334961	584.1547241210939	-1248.376831054688	-201.7300109863282	619.0702514648439	-1254.442138671875	-207.2744140625001	532.0397338867189	-1231.81591796875	-112.2816696166992	455.5923461914064	-1219.864868164063	-113.3079528808594	462.1400451660157	-1096.159790039063	-158.8185119628907	257.6413879394532	-1136.950317382813	-238.9800109863282	252.5666961669922	-1177.990234375	-206.1883697509766	231.0631866455079	-1156.475708007813	-239.5278778076172	166.5339813232422	-1106.731201171875	-344.6442565917969	120.2924880981446	-1112.274658203125	-303.0581054687501	140.5160217285157	-1033.33349609375	-412.664031982422	97.31509399414065	-1050.7470703125	-198.451644897461	58.69116973876955	-1052.1552734375	-204.4510650634766	49.91460418701173	-1097.60205078125	-260.9164123535157	35.47372436523438	-1138.831909179688	-254.6099243164063	653.7760620117189	-866.5474243164065	-190.8064727783203	636.0313720703126	-871.363220214844	-168.1736450195313	659.4934692382814	-879.1282958984377	-158.2259674072266	559.6435546875001	-877.7886962890627	-57.82091903686525	470.4003295898439	-883.1235351562502	-45.5334815979004	464.4006958007814	-1018.834899902344	107.6134414672852	372.7718811035157	-900.8193359375002	110.7273101806641	269.0396423339844	-871.270446777344	146.4915924072266	297.7363281250001	-881.2857055664065	191.1479797363282	276.2216186523438	-913.393005371094	239.8168029785157	158.2605743408203	-885.4263305664065	239.4024353027344	178.0235595703125	-973.3779296875002	231.1050720214844	77.39913177490236	-934.9986572265627	383.6368713378907	238.3233184814454	-960.8137817382815	380.6962280273438	240.3130798339844	-920.9396972656252	373.9100036621094	194.2803802490235	-866.955749511719	nan	nan	nan	
492	2.455	-203.9729003906251	1536.1201171875	-1154.27685546875	-323.6672058105469	1476.946166992188	-1198.514038085938	-375.5919799804688	1432.394653320313	-1067.84130859375	-374.7042541503907	1332.012084960938	-1111.375366210938	-486.2422180175782	1043.1416015625	-1075.303833007813	-261.6224975585938	1248.505981445313	-1124.341796875	-310.2061767578126	1333.337768554688	-1247.144165039063	-155.9150848388672	1302.360961914063	-1327.958984375	-127.0046920776367	1315.227172851563	-1289.4150390625	-87.46427154541017	1293.535888671875	-1330.35302734375	-27.40459442138673	1269.229736328125	-1330.120727539063	-36.91373825073243	1214.3857421875	-1297.073974609375	nan	nan	nan	247.6698608398438	1310.319213867188	-1269.443603515625	306.8564147949219	1329.053833007813	-1173.836059570313	-273.0221557617188	1314.3603515625	-987.5698242187502	-113.2374801635742	1261.815673828125	-918.6478271484377	-87.79457092285158	1286.3818359375	-952.2799072265627	-43.91707992553712	1251.766967773438	-927.262634277344	16.55792427062989	1247.155517578125	-944.147644042969	5.218818664550782	1189.713623046875	-994.355651855469	256.1702270507813	1321.213989257813	-1101.650024414063	277.4299316406251	1300.630004882813	-1029.957763671875	351.7194519042969	1340.513427734375	-1106.882080078125	-354.2601928710938	849.6750488281252	-1177.482543945313	-336.5467529296876	863.2586059570315	-957.5241699218752	-527.1361083984376	888.4370117187502	-1051.979248046875	-538.3619384765626	855.3366699218752	-1078.675048828125	-530.9176635742189	856.0963134765627	-1022.722229003906	-313.0719909667969	607.9698486328126	-1235.821899414063	-232.5167388916016	583.5872192382814	-1248.295288085938	-201.8091735839844	618.4370117187501	-1254.359008789063	-207.3003387451172	531.7271118164064	-1231.716796875	-111.7698135375977	455.1148071289064	-1219.693725585938	-113.1394882202149	461.6993103027345	-1096.054077148438	-158.6063385009766	257.1899719238282	-1136.855102539063	-238.7927246093751	252.3246002197266	-1177.856689453125	-205.8352050781251	230.8789825439454	-1156.26904296875	-239.3770599365235	166.5286254882813	-1106.765502929688	-344.6386413574219	120.29296875	-1112.172729492188	-303.0350646972657	140.4907684326172	-1033.163696289063	-412.6555480957032	97.31044006347659	-1050.671508789063	-198.4203186035157	58.60110092163087	-1052.095458984375	-204.4240417480469	49.93526077270509	-1097.568969726563	-260.9384765625001	35.53461456298829	-1138.798217773438	-253.9452667236329	652.8140258789064	-866.128112792969	-190.6928253173828	635.1356811523439	-871.448669433594	-167.7345581054688	659.1013793945314	-878.6225585937502	-158.1055145263672	558.9716186523439	-877.9030761718752	-57.24451065063478	469.5626831054689	-883.3773193359377	-45.18912887573243	463.5525512695314	-1018.880493164063	108.2103347778321	372.7275695800782	-901.0839843750002	111.3013381958008	268.5585021972657	-871.4981689453127	147.2235412597657	297.4765930175782	-881.8071899414065	191.811996459961	275.8558654785157	-913.5379028320315	240.8497467041016	158.0109252929688	-885.6753540039065	240.3168487548829	177.981674194336	-973.6995239257815	232.3151397705079	77.31520843505861	-935.349548339844	384.569061279297	238.4906616210938	-961.0964355468752	381.7291564941407	240.4618835449219	-921.269958496094	374.8656616210938	194.1634521484376	-867.1531372070315	nan	nan	nan	
493	2.46	-203.4427642822266	1534.57177734375	-1154.423583984375	-323.1681213378907	1475.268920898438	-1198.5771484375	-375.2192687988282	1430.739624023438	-1067.980712890625	-373.8858337402344	1330.529663085938	-1111.537963867188	-486.3000488281251	1041.942504882813	-1075.319580078125	-261.4529418945313	1247.201538085938	-1124.908447265625	-309.4258117675782	1331.722778320313	-1247.239501953125	-155.4205322265625	1301.137084960938	-1328.065185546875	-126.3689498901367	1313.92236328125	-1289.442993164063	-86.94576263427736	1292.291015625	-1330.469116210938	-27.53634262084962	1268.267333984375	-1330.205200195313	-36.33785247802735	1213.390258789063	-1297.208984375	nan	nan	nan	248.3592987060547	1309.244384765625	-1269.485595703125	307.3710937500001	1328.37353515625	-1174.117919921875	-272.5631103515626	1312.673950195313	-987.8227539062502	-112.2850418090821	1260.138427734375	-918.9434204101565	-87.09321594238283	1284.8681640625	-952.4536132812502	-43.29576873779298	1250.460205078125	-927.8982543945315	17.42307090759278	1246.256103515625	-944.5203247070315	5.62923288345337	1188.06591796875	-993.7268066406252	256.7264404296876	1320.612915039063	-1101.695068359375	278.1051330566407	1299.88134765625	-1030.224365234375	352.3666381835938	1339.966918945313	-1107.05224609375	-354.7433471679688	848.5012817382815	-1177.339111328125	-336.8542785644532	861.8325805664065	-957.441833496094	-527.4472045898439	887.139831542969	-1051.77685546875	-538.3780517578126	854.3706054687502	-1078.310791015625	-531.2017822265626	854.881530761719	-1022.646301269531	-313.0571289062501	607.0355834960939	-1235.625732421875	-232.4465484619141	582.9038696289064	-1248.2666015625	-201.637924194336	617.7241210937501	-1254.171630859375	-206.9390563964844	530.9989624023439	-1231.6357421875	-111.1353836059571	454.6466369628907	-1219.4970703125	-112.7477493286133	461.4409179687501	-1095.826904296875	-158.5167388916016	256.6218261718751	-1136.518676757813	-238.4663848876954	251.8585205078126	-1177.690185546875	-206.3137969970704	230.8020782470704	-1155.268676757813	-239.3265838623047	166.5191040039063	-1106.517822265625	-344.6726684570313	120.2857894897461	-1112.096435546875	-303.1320800781251	140.524642944336	-1033.013549804688	-412.655242919922	97.34821319580081	-1050.628173828125	-198.4749755859376	58.588680267334	-1052.0341796875	-204.4104614257813	49.8688201904297	-1097.5546875	-260.9105224609376	35.52072906494141	-1138.784423828125	-253.7395324707032	651.5858764648439	-866.033630371094	-190.7295074462891	634.2983398437501	-871.386413574219	-167.5598754882813	657.9252929687501	-878.6230468750002	-158.1310577392578	558.1935424804689	-878.0451660156252	-56.98632049560548	468.9939270019532	-883.643493652344	-44.93342971801759	463.1443176269532	-1019.089050292969	108.9509811401367	372.6895751953126	-900.8115844726565	112.1379547119141	268.2614135742188	-871.8041992187502	147.962158203125	297.3205261230469	-881.8225708007815	192.4680175781251	275.5726318359376	-913.700378417969	241.7929077148438	158.0494689941407	-885.854675292969	241.2983551025391	177.985824584961	-974.0443115234377	233.1890411376954	77.29649353027345	-935.6610107421877	385.4881591796876	238.6747436523438	-961.5295410156252	381.9860534667969	240.5760955810547	-921.5177001953127	375.6839904785157	194.2473602294922	-867.429382324219	nan	nan	nan	
494	2.465	-203.3030395507813	1533.0859375	-1154.514038085938	-322.9703063964844	1473.585693359375	-1198.689086914063	-375.0515136718751	1429.07763671875	-1067.975219726563	-373.4658813476563	1328.973999023438	-1111.58740234375	-486.4160461425782	1040.939086914063	-1075.154296875	-260.9585571289063	1245.29833984375	-1124.7265625	-308.8731689453126	1330.41455078125	-1247.280029296875	-154.9419097900391	1300.088012695313	-1328.100830078125	-125.6045684814453	1312.553833007813	-1289.611572265625	-86.41683197021486	1291.126831054688	-1330.592407226563	-26.86514472961426	1267.052124023438	-1330.3759765625	-35.76902008056641	1211.983276367188	-1297.289672851563	nan	nan	nan	248.6168975830079	1308.395385742188	-1269.745239257813	307.9825439453126	1327.413330078125	-1174.18115234375	-271.7526550292969	1311.4912109375	-988.153259277344	-111.4846496582032	1259.493286132813	-919.4366455078127	-86.60513305664064	1283.86865234375	-952.806091308594	-43.22043609619141	1248.82373046875	-928.6184082031252	17.98690795898438	1244.725952148438	-944.6316528320315	6.932772159576418	1187.171508789063	-995.5320434570315	257.3872985839844	1320.1396484375	-1101.802368164063	278.9502868652344	1299.304443359375	-1030.38330078125	352.9378051757813	1339.463500976563	-1107.15869140625	-355.2250976562501	847.5540771484377	-1177.283813476563	-337.4750366210938	860.737243652344	-957.1551513671877	-527.7294921875001	885.8435668945315	-1051.502685546875	-538.5210571289064	852.8413696289065	-1078.037719726563	-531.8699340820314	853.8347778320315	-1022.203308105469	-313.1094360351563	606.1906738281251	-1235.5322265625	-232.1732482910157	582.2150878906251	-1248.124877929688	-201.5445251464844	617.1704711914064	-1254.044067382813	-206.6746215820313	530.4553833007814	-1231.584228515625	-110.5799026489258	454.5957641601564	-1219.238159179688	-112.0239181518555	460.8978881835939	-1095.6943359375	-158.418701171875	256.6142883300782	-1136.291748046875	-238.2130889892579	251.8472900390626	-1177.421020507813	-211.6473388671876	225.5672760009766	-1153.547119140625	-239.6045379638672	166.6814727783203	-1106.019165039063	-344.4120178222657	120.1200027465821	-1111.98828125	-303.0142211914063	140.3506317138672	-1032.751953125	-412.6693420410157	97.26963043212893	-1050.572509765625	-198.5157470703126	58.53235244750978	-1051.978759765625	-204.4221496582032	49.8609085083008	-1097.473876953125	-260.7647705078126	35.53292083740235	-1138.737670898438	-254.6276245117188	650.5728759765626	-866.641052246094	-190.5866088867188	633.3527832031251	-871.2542114257815	-167.9128875732422	656.7562866210939	-879.1226806640627	-157.9893646240235	557.3023681640626	-878.0412597656252	-56.72605514526369	468.3665466308595	-883.7927246093752	-44.09468460083009	462.8106994628907	-1019.149353027344	109.478271484375	372.9908752441407	-901.013854980469	112.6384963989258	267.9306945800782	-871.9715576171877	148.5525512695313	297.2961120605469	-882.007019042969	193.5565490722657	275.6838989257813	-914.3206176757815	242.4415740966797	157.9053955078125	-886.2185058593752	242.1307067871094	177.9360656738282	-974.3481445312502	234.3459167480469	77.13147735595705	-936.0308837890627	386.0974121093751	238.8784790039063	-961.7209472656252	382.4671020507813	240.7523956298829	-921.6616821289065	376.5631408691407	194.5185699462891	-868.0108642578127	nan	nan	nan	
